<?xml version="1.0" encoding="UTF-8"?>
<svg xmlns="http://www.w3.org/2000/svg" xmlns:xlink="http://www.w3.org/1999/xlink" width="25px" height="25px" viewBox="0 0 25 25" version="1.1">
<g id="surface1">
<path style=" stroke:none;fill-rule:nonzero;fill:rgb(0%,0%,0%);fill-opacity:1;" d="M 20.832031 3.125 L 4.167969 3.125 C 2.441406 3.125 1.042969 4.523438 1.042969 6.25 L 1.042969 18.75 C 1.042969 20.476562 2.441406 21.875 4.167969 21.875 L 20.832031 21.875 C 22.558594 21.875 23.957031 20.476562 23.957031 18.75 L 23.957031 6.25 C 23.957031 4.523438 22.558594 3.125 20.832031 3.125 Z M 20.832031 5.207031 C 20.953125 5.207031 21.070312 5.230469 21.175781 5.265625 L 12.5 12.207031 L 3.824219 5.265625 C 3.929688 5.230469 4.046875 5.207031 4.167969 5.207031 Z M 20.832031 19.792969 L 4.167969 19.792969 C 3.589844 19.792969 3.125 19.324219 3.125 18.75 L 3.125 7.375 L 11.847656 14.355469 C 12.039062 14.507812 12.269531 14.582031 12.5 14.582031 C 12.730469 14.582031 12.960938 14.507812 13.152344 14.355469 L 21.875 7.375 L 21.875 18.75 C 21.875 19.324219 21.410156 19.792969 20.832031 19.792969 Z M 20.832031 19.792969 "/>
</g>
</svg>
